<svg xmlns="http://www.w3.org/2000/svg" xmlns:xlink="http://www.w3.org/1999/xlink" viewBox="0,0,256,256" width="250px" height="250px" fill-rule="nonzero"><g fill="#ffffff" fill-rule="nonzero" stroke="none" stroke-width="1" stroke-linecap="butt" stroke-linejoin="miter" stroke-miterlimit="10" stroke-dasharray="" stroke-dashoffset="0" font-family="none" font-weight="none" font-size="none" text-anchor="none" style="mix-blend-mode: normal"><g transform="scale(5.12,5.12)"><path d="M15,3v16.9375l4,-2.03125l4,2.09375v-17zM11,6c-3.36328,0 -6,2.63672 -6,6v21c0,3.36328 2.63672,6 6,6h1v8.21875l9.375,-8.21875h18.625c3.36328,0 6,-2.63672 6,-6v-21c0,-3.36328 -2.63672,-6 -6,-6h-15v16.375l-6,7.625l-6,-7.625v-16.375zM19,20.09375l-3.71875,1.875l2.375,3.03125h2.65625l2.34375,-3zM19.125,30h24.875v3c0,2.24219 -1.75781,4 -4,4h-16.46875z"></path></g></g></svg>